<svg width="820" height="635" viewBox="0 0 820 635" fill="none" xmlns="http://www.w3.org/2000/svg">
<path opacity="0.7" d="M329.552 270.051C331.685 281.784 317.455 317.051 357.955 294.551C373.955 285.662 371.288 306.551 381.954 306.551C386.954 303.551 391.289 279.451 401.955 273.051C412.622 266.651 426.688 239.217 430.954 228.551C435.221 217.884 428.82 205.285 430.954 193.551C432.591 184.551 444.955 170.051 430.954 171.279C402.955 177.551 418.085 144.612 405.285 151.012C392.485 157.412 379.685 164.879 366.885 171.279L366.883 171.28C354.084 177.68 341.284 184.079 329.552 189.412C317.818 194.746 310.155 202.817 306.955 214.551C303.755 226.284 327.418 258.317 329.552 270.051Z" stroke="#C02626" stroke-width="3" stroke-linecap="round" stroke-linejoin="round"/>
<path opacity="0.7" d="M299.455 569.551C315.955 549.551 308.955 551.551 306.955 516.551C304.955 481.551 351.955 391.051 350.955 359.051C346.955 336.051 337.955 338.051 332.955 326.051C326.955 310.051 358.455 266.551 356.455 246.551C354.455 226.551 340.455 213.551 340.455 193.551" stroke="#C02626" stroke-width="3" stroke-linecap="round" stroke-linejoin="round"/>
<path d="M200.455 173.051L355.455 253.051" stroke="#111111" stroke-opacity="0.22" stroke-width="0.75" stroke-linecap="round"/>
<path d="M200.455 399.051L339.455 195.051" stroke="#111111" stroke-opacity="0.22" stroke-width="0.75" stroke-linecap="round"/>
<path d="M341.455 194.051L545 161L451.455 170.551" stroke="#111111" stroke-opacity="0.22" stroke-width="0.75" stroke-linecap="round"/>
<path d="M545.455 391.051L423.455 243.051" stroke="#111111" stroke-opacity="0.22" stroke-width="0.75" stroke-linecap="round"/>
<path d="M340.64 201.735C345.058 201.735 348.64 198.153 348.64 193.735C348.64 189.317 345.058 185.735 340.64 185.735C336.221 185.735 332.64 189.317 332.64 193.735C332.64 198.153 336.221 201.735 340.64 201.735Z" fill="#C02626" fill-opacity="0.12"/>
<path d="M340.64 197.235C342.573 197.235 344.14 195.668 344.14 193.735C344.14 191.802 342.573 190.235 340.64 190.235C338.707 190.235 337.14 191.802 337.14 193.735C337.14 195.668 338.707 197.235 340.64 197.235Z" fill="#C02626" stroke="#F5F1EA" stroke-opacity="0.9" stroke-width="1.5"/>
<path d="M340.64 201.735C345.058 201.735 348.64 198.153 348.64 193.735C348.64 189.317 345.058 185.735 340.64 185.735C336.221 185.735 332.64 189.317 332.64 193.735C332.64 198.153 336.221 201.735 340.64 201.735Z" fill="#C02626" fill-opacity="0.12"/>
<path d="M340.64 197.235C342.573 197.235 344.14 195.668 344.14 193.735C344.14 191.802 342.573 190.235 340.64 190.235C338.707 190.235 337.14 191.802 337.14 193.735C337.14 195.668 338.707 197.235 340.64 197.235Z" fill="#C02626" stroke="#F5F1EA" stroke-opacity="0.9" stroke-width="1.5"/>
<path d="M450.455 178.051C454.873 178.051 458.455 174.469 458.455 170.051C458.455 165.633 454.873 162.051 450.455 162.051C446.037 162.051 442.455 165.633 442.455 170.051C442.455 174.469 446.037 178.051 450.455 178.051Z" fill="#C02626" fill-opacity="0.12"/>
<path d="M450.455 173.551C452.388 173.551 453.955 171.984 453.955 170.051C453.955 168.118 452.388 166.551 450.455 166.551C448.522 166.551 446.955 168.118 446.955 170.051C446.955 171.984 448.522 173.551 450.455 173.551Z" fill="#C02626" stroke="#F5F1EA" stroke-opacity="0.9" stroke-width="1.5"/>
<path d="M200 175C201.105 175 202 174.105 202 173C202 171.895 201.105 171 200 171C198.895 171 198 171.895 198 173C198 174.105 198.895 175 200 175Z" fill="#111111" fill-opacity="0.28"/>
<path d="M200 401C201.105 401 202 400.105 202 399C202 397.895 201.105 397 200 397C198.895 397 198 397.895 198 399C198 400.105 198.895 401 200 401Z" fill="#111111" fill-opacity="0.28"/>
<path d="M545 163C546.105 163 547 162.105 547 161C547 159.895 546.105 159 545 159C543.895 159 543 159.895 543 161C543 162.105 543.895 163 545 163Z" fill="#111111" fill-opacity="0.28"/>
<path d="M545 393C546.105 393 547 392.105 547 391C547 389.895 546.105 389 545 389C543.895 389 543 389.895 543 391C543 392.105 543.895 393 545 393Z" fill="#111111" fill-opacity="0.28"/>
</svg>
